<svg width="26" height="26" viewBox="0 0 26 26" fill="none" xmlns="http://www.w3.org/2000/svg">
<path d="M14.0541 9.72968H20L14.0541 3.78373V9.72968ZM6.4865 2.16211H15.1352L21.6216 8.6486V21.6216C21.6216 22.195 21.3938 22.745 20.9884 23.1504C20.5829 23.5559 20.0329 23.7837 19.4595 23.7837H6.4865C5.91306 23.7837 5.36311 23.5559 4.95762 23.1504C4.55214 22.745 4.32434 22.195 4.32434 21.6216V4.32427C4.32434 3.12427 5.2865 2.16211 6.4865 2.16211ZM15.1352 21.6216V20.5405C15.1352 19.1027 12.2487 18.3783 10.8108 18.3783C9.37299 18.3783 6.4865 19.1027 6.4865 20.5405V21.6216H15.1352ZM10.8108 12.9729C10.2374 12.9729 9.68743 13.2007 9.28195 13.6062C8.87646 14.0117 8.64867 14.5616 8.64867 15.1351C8.64867 15.7085 8.87646 16.2585 9.28195 16.664C9.68743 17.0694 10.2374 17.2972 10.8108 17.2972C11.3843 17.2972 11.9342 17.0694 12.3397 16.664C12.7452 16.2585 12.973 15.7085 12.973 15.1351C12.973 14.5616 12.7452 14.0117 12.3397 13.6062C11.9342 13.2007 11.3843 12.9729 10.8108 12.9729Z" fill="#FFFFFF"/>
</svg>
