<svg width="54" height="54" viewBox="0 0 54 54" fill="none" xmlns="http://www.w3.org/2000/svg">
<path d="M44.9382 43.8696H8.38022V9.86408H44.9382V43.8696Z" stroke="#0163D6" stroke-width="2.66667" stroke-miterlimit="10" stroke-linecap="round" stroke-linejoin="round"/>
<mask id="mask0_2113_954" style="mask-type:luminance" maskUnits="userSpaceOnUse" x="1" y="1" width="51" height="51">
<path d="M1.33334 1.33333H52V52H1.33334V1.33333Z" fill="white"/>
</mask>
<g mask="url(#mask0_2113_954)">
<path d="M44.9382 9.86475V8.1778C44.9382 5.21776 42.5427 2.81812 39.5878 2.81812H13.7307C10.7757 2.81812 8.38022 5.21776 8.38022 8.1778V9.86475" stroke="#0163D6" stroke-width="2.66667" stroke-miterlimit="10" stroke-linecap="round" stroke-linejoin="round"/>
<path d="M44.9531 11.1536C48.0281 11.1536 50.5209 13.5068 50.5209 16.4095V19.5156H44.9531" stroke="#0163D6" stroke-width="2.66667" stroke-miterlimit="10" stroke-linecap="round" stroke-linejoin="round"/>
<path d="M8.38551 11.1536C5.31058 11.1536 2.81772 13.5068 2.81772 16.4095V19.5156H8.38551" stroke="#0163D6" stroke-width="2.66667" stroke-miterlimit="10" stroke-linecap="round" stroke-linejoin="round"/>
<path d="M17.3927 43.8698V50.5156H9.54688V43.8698" stroke="#0163D6" stroke-width="2.66667" stroke-miterlimit="10" stroke-linecap="round" stroke-linejoin="round"/>
<path d="M43.7728 43.8698V50.5156H35.9271V43.8698" stroke="#0163D6" stroke-width="2.66667" stroke-miterlimit="10" stroke-linecap="round" stroke-linejoin="round"/>
<path d="M8.39062 32.0093H44.9335" stroke="#0163D6" stroke-width="2.66667" stroke-miterlimit="10" stroke-linecap="round" stroke-linejoin="round"/>
<path d="M27.0469 31.9946C27.0469 28.6929 29.7235 26.0163 33.0252 26.0163C36.327 26.0163 39.0036 28.6929 39.0036 31.9946" stroke="#0163D6" stroke-width="2.66667" stroke-miterlimit="10" stroke-linecap="round" stroke-linejoin="round"/>
</g>
</svg>
