<svg width="54" height="54" viewBox="0 0 54 54" fill="none" xmlns="http://www.w3.org/2000/svg">
<path d="M10.3639 17.6917C10.3639 17.8162 10.3639 18.0028 10.4173 18.2428C10.4706 18.7228 10.5684 19.3895 10.7106 20.1362C10.9018 20.9781 11.1483 21.8066 11.4484 22.6162C11.7949 23.4887 12.2204 24.3277 12.7195 25.1228C12.9684 25.5139 13.2261 25.8784 13.4839 26.2251C13.7417 26.5717 14.0528 26.9006 14.3284 27.1939C14.8263 27.7197 15.3741 28.196 15.9639 28.6162C18.3106 30.394 22.2484 30.8028 25.0928 30.394C25.1429 30.4089 25.1963 30.4083 25.246 30.3923C25.2957 30.3762 25.3394 30.3454 25.3712 30.3039C25.403 30.2625 25.4215 30.2123 25.4242 30.1601C25.4268 30.108 25.4136 30.0562 25.3861 30.0117C24.8232 27.5548 25.2308 24.9753 26.5239 22.8117C27.2766 21.6439 28.1724 20.5748 29.1906 19.6295L29.5995 19.2384C29.9773 18.9172 30.3752 18.6204 30.7906 18.3495C32.1733 17.4524 33.7104 16.8195 35.3239 16.4828C37.1277 16.1267 38.978 16.0727 40.7995 16.3228C41.4513 16.4104 42.0981 16.532 42.7373 16.6873L43.4661 16.8917C43.4439 15.7061 43.2523 14.5298 42.8972 13.3984C42.5036 12.2024 41.9537 11.0636 41.2617 10.0117C39.7081 7.66861 37.5611 5.77924 35.0395 4.53616C32.3715 3.18885 29.4145 2.51446 26.4261 2.57172C23.4598 2.61737 20.5527 3.40911 17.9728 4.87394C15.5345 6.21799 13.4928 8.17997 12.0528 10.5628C10.8194 12.6455 10.2201 15.0426 10.3284 17.4606L10.3639 17.6917Z" fill="url(#paint0_linear_2113_422)"/>
<path d="M51.7595 31.5404C51.6706 30.8382 51.5461 30.1448 51.395 29.4693C51.0566 28.1726 50.5486 26.9263 49.8839 25.7626C48.7193 23.6348 46.9416 21.9066 44.7817 20.8026L44.1239 20.4826C43.5434 20.2243 42.95 19.9959 42.3462 19.7982C40.6285 19.2259 38.822 18.967 37.0128 19.0337C33.155 19.1048 28.8173 21.6293 27.235 25.2559C27.2133 25.3223 27.2133 25.394 27.235 25.4604C27.2504 25.52 27.2847 25.573 27.3328 25.6115C28.7692 27.036 30.0862 28.5759 31.2706 30.2159C32.309 32.0116 33.0617 33.9578 33.5017 35.9848V36.1359C33.54 36.2672 33.5696 36.4008 33.5906 36.5359C33.6439 36.8737 33.7239 37.3804 33.7773 38.0204C33.8082 38.7619 33.7844 39.5046 33.7061 40.2426C33.5914 41.1299 33.395 42.0047 33.1195 42.8559C32.9684 43.3004 32.7995 43.7448 32.6128 44.207C32.4262 44.6693 32.1951 45.0959 31.9728 45.4782C31.5514 46.2564 31.0636 46.997 30.515 47.6915C30.1181 48.2138 29.6876 48.7096 29.2262 49.1759L28.6839 49.7182C30.8581 50.9011 33.3263 51.4348 35.795 51.2559C38.594 51.0689 41.2947 50.1493 43.6262 48.5893C46.1237 46.9674 48.1824 44.7544 49.6198 42.1463C51.0572 39.5383 51.8288 36.6158 51.8661 33.6382C51.8773 32.9373 51.8416 32.2365 51.7595 31.5404Z" fill="url(#paint1_linear_2113_422)"/>
<path d="M30.1604 43.0959C31.3426 40.9093 31.3604 38.2604 31.1382 35.8515C31.0732 33.9774 30.5019 32.1559 29.4848 30.5804C28.0893 31.8515 25.8137 32.0204 24.0093 32.1537C23.1241 32.254 22.2333 32.2956 21.3426 32.2782C19.9557 32.2158 18.582 31.9798 17.2537 31.5759L16.7293 31.3982C16.2524 31.2391 15.7888 31.0429 15.3426 30.8115C14.6843 30.4794 14.0567 30.0898 13.4671 29.647C13.1382 29.3893 12.7826 29.1137 12.4449 28.8115C12.1071 28.5093 11.8049 28.1804 11.476 27.8248C10.8396 27.1077 10.2656 26.3375 9.76039 25.5226C9.315 24.7581 8.9201 23.9653 8.57818 23.1493C8.29374 22.4204 8.0804 21.7626 7.93818 21.2915C7.86187 21.0493 7.79955 20.803 7.75152 20.5537C5.65521 21.834 3.96588 23.6836 2.8804 25.887C1.66134 28.3958 1.09861 31.1728 1.24485 33.9582C1.39671 36.9459 2.2919 39.8484 3.84929 42.4026C5.38477 44.9532 7.52094 47.0893 10.0715 48.6248C12.4553 50.0504 15.1701 50.8287 17.9471 50.8826C20.3745 50.9314 22.7611 50.2535 24.8004 48.9359L25.4137 48.5093C25.9326 48.1368 26.4283 47.733 26.8982 47.3004C27.5454 46.7261 28.1404 46.0955 28.6759 45.4159C28.9693 45.0515 29.2449 44.6871 29.5026 44.2959C29.7604 43.9048 29.9471 43.5048 30.1604 43.0959Z" fill="url(#paint2_linear_2113_422)"/>
<defs>
<linearGradient id="paint0_linear_2113_422" x1="18.4439" y1="28.6873" x2="34.7373" y2="2.61617" gradientUnits="userSpaceOnUse">
<stop stop-color="#E5322D"/>
<stop offset="1" stop-color="#F08504"/>
</linearGradient>
<linearGradient id="paint1_linear_2113_422" x1="28.675" y1="24.4737" x2="46.4528" y2="46.3937" gradientUnits="userSpaceOnUse">
<stop stop-color="#004996"/>
<stop offset="1" stop-color="#3AB4E6"/>
</linearGradient>
<linearGradient id="paint2_linear_2113_422" x1="3.93818" y1="42.047" x2="27.9382" y2="27.8248" gradientUnits="userSpaceOnUse">
<stop stop-color="#97BE11"/>
<stop offset="1" stop-color="#258F2D"/>
</linearGradient>
</defs>
</svg>
