<svg width="44" height="44" viewBox="0 0 44 44" fill="none" xmlns="http://www.w3.org/2000/svg">
<path d="M0 13.4926C0 6.04085 6.04085 0 13.4926 0H29.6838C37.1355 0 43.1764 6.04085 43.1764 13.4926V29.6838C43.1764 37.1355 37.1355 43.1764 29.6838 43.1764H13.4926C6.04085 43.1764 0 37.1355 0 29.6838V13.4926Z" fill="url(#paint0_linear_145_7600)"/>
<path d="M24.7158 22.3906L26.0786 30.0598C26.0938 30.1501 26.0811 30.243 26.0422 30.3259C26.0033 30.4088 25.94 30.4778 25.8608 30.5238C25.7816 30.5698 25.6902 30.5904 25.5989 30.5831C25.5077 30.5757 25.4208 30.5407 25.35 30.4826L22.1297 28.0656C21.9743 27.9495 21.7854 27.8867 21.5914 27.8867C21.3973 27.8867 21.2085 27.9495 21.053 28.0656L17.8274 30.4817C17.7566 30.5397 17.6698 30.5747 17.5786 30.582C17.4875 30.5894 17.3962 30.5688 17.317 30.523C17.2379 30.4771 17.1746 30.4082 17.1356 30.3255C17.0966 30.2427 17.0837 30.1501 17.0988 30.0598L18.4606 22.3906" stroke="white" stroke-width="1.79902" stroke-linecap="round" stroke-linejoin="round"/>
<path d="M21.5882 23.3898C24.5689 23.3898 26.9853 20.9735 26.9853 17.9928C26.9853 15.012 24.5689 12.5957 21.5882 12.5957C18.6075 12.5957 16.1912 15.012 16.1912 17.9928C16.1912 20.9735 18.6075 23.3898 21.5882 23.3898Z" stroke="white" stroke-width="1.79902" stroke-linecap="round" stroke-linejoin="round"/>
<defs>
<linearGradient id="paint0_linear_145_7600" x1="0" y1="0" x2="43.1764" y2="43.1764" gradientUnits="userSpaceOnUse">
<stop stop-color="#FE9A00"/>
<stop offset="1" stop-color="#FF6900"/>
</linearGradient>
</defs>
</svg>
