<svg width="26" height="26" viewBox="0 0 26 26" fill="none" xmlns="http://www.w3.org/2000/svg">
<path d="M10.4942 20.9887C10.4941 21.1837 10.5483 21.3749 10.6508 21.5408C10.7533 21.7067 10.9 21.8407 11.0745 21.9279L13.1733 22.9773C13.3334 23.0573 13.5112 23.095 13.6899 23.0869C13.8686 23.0789 14.0423 23.0252 14.1945 22.9311C14.3466 22.837 14.4722 22.7055 14.5592 22.5493C14.6463 22.393 14.6919 22.217 14.6919 22.0381V14.6921C14.6921 14.172 14.8854 13.6705 15.2344 13.2848L22.8144 4.90098C22.9503 4.75045 23.0396 4.56378 23.0716 4.36355C23.1036 4.16332 23.077 3.9581 22.9948 3.77271C22.9127 3.58733 22.7786 3.42971 22.6087 3.31892C22.4389 3.20813 22.2406 3.14892 22.0378 3.14844H3.14817C2.94522 3.14851 2.74664 3.20743 2.57649 3.31806C2.40635 3.42869 2.27193 3.58629 2.18952 3.77176C2.10712 3.95723 2.08026 4.16261 2.1122 4.36303C2.14414 4.56346 2.23352 4.75032 2.36949 4.90098L9.9516 13.2848C10.3006 13.6705 10.4939 14.172 10.4942 14.6921V20.9887Z" stroke="#4A5565" stroke-width="2.09885" stroke-linecap="round" stroke-linejoin="round"/>
</svg>
