<svg width="54" height="54" viewBox="0 0 54 54" fill="none" xmlns="http://www.w3.org/2000/svg">
<path d="M0 13.4926C0 6.04086 6.04085 0 13.4926 0H40.4779C47.9296 0 53.9705 6.04085 53.9705 13.4926V40.4779C53.9705 47.9296 47.9296 53.9705 40.4779 53.9705H13.4926C6.04086 53.9705 0 47.9296 0 40.4779V13.4926Z" fill="#E0E7FF"/>
<path d="M31.4829 35.9792V17.989C31.4829 17.3926 31.246 16.8206 30.8242 16.3989C30.4025 15.9772 29.8305 15.7402 29.2341 15.7402H24.7366C24.1402 15.7402 23.5682 15.9772 23.1464 16.3989C22.7247 16.8206 22.4878 17.3926 22.4878 17.989V35.9792" stroke="#4F39F6" stroke-width="2.24877" stroke-linecap="round" stroke-linejoin="round"/>
<path d="M35.9804 20.2383H17.9902C16.7483 20.2383 15.7415 21.2451 15.7415 22.4871V33.7309C15.7415 34.9729 16.7483 35.9797 17.9902 35.9797H35.9804C37.2223 35.9797 38.2292 34.9729 38.2292 33.7309V22.4871C38.2292 21.2451 37.2223 20.2383 35.9804 20.2383Z" stroke="#4F39F6" stroke-width="2.24877" stroke-linecap="round" stroke-linejoin="round"/>
</svg>
